# File created by Blade
# Date/Time:  Tue Jan 27 19:32:37 2015
# Frame Rate: 120.000 fps
#------------------------------------------------------
:FULLY-SPECIFIED
:DEGREES
2476
root 3.550475 32.201723 -0.527325 -6.012972 -1.398911 -0.215356
Spine 3.273682 3.621831 -1.178173
Head 29.963889 -52.450999 -9.020944
LeftShoulder -3.859038 -6.668445 26.908746
LeftArm 0.653279 40.531031 -98.102773
LeftForeArm 2.297093 -0.000000 11.448269
LeftHand 10.118628 -0.000000 -4.721965
LeftHandThumb1 -26.253704 0.000000 33.147579
RightShoulder -10.667252 -9.578016 -24.127221
RightArm 5.605233 24.170152 62.373801
RightForeArm -2.004645 -0.000000 123.573363
RightHand 28.457140 -0.000000 -23.267666
RightHandThumb1 -24.326973 -0.000000 -32.862282
LeftUpLeg 12.024743 2.945056 -0.758095
LeftLeg 2.768562 -0.000000 -0.000000
LeftFoot -21.778842 17.999883 -23.566185
LeftToeBase 15.979880 -0.000000 -0.000000
RightUpLeg 10.265091 -7.873612 1.618263
RightLeg 1.363060 -0.000000 -0.000000
RightFoot -13.177272 -12.633406 13.937333
RightToeBase 11.914455 -0.000000 -0.000000
2477
root 3.548596 32.201883 -0.533932 -6.019217 -1.482168 -0.227819
Spine 3.289286 3.679054 -1.179442
Head 29.914537 -52.495675 -8.927274
LeftShoulder -3.836833 -6.653964 26.940936
LeftArm 0.688340 40.491601 -98.108494
LeftForeArm 2.342127 -0.000000 11.490299
LeftHand 10.096000 -0.000000 -4.697901
LeftHandThumb1 -26.253704 0.000000 33.147579
RightShoulder -10.667226 -9.624125 -24.057496
RightArm 5.943271 22.525833 62.201854
RightForeArm -1.864130 -0.000000 122.907056
RightHand 28.487451 -0.000000 -22.816276
RightHandThumb1 -24.326973 -0.000000 -32.862282
LeftUpLeg 12.023996 2.979775 -0.745109
LeftLeg 2.780111 -0.000000 -0.000000
LeftFoot -21.820931 18.066548 -23.548994
LeftToeBase 16.090418 -0.000000 -0.000000
RightUpLeg 10.246542 -7.844639 1.633985
RightLeg 1.367219 -0.000000 -0.000000
RightFoot -13.154841 -12.579610 13.949288
RightToeBase 11.962723 -0.000000 -0.000000
2478
root 3.545896 32.201924 -0.540461 -6.032395 -1.559606 -0.236867
Spine 3.304579 3.783526 -1.189076
Head 29.908847 -52.574932 -8.846920
LeftShoulder -3.750826 -6.697296 26.980007
LeftArm 0.697178 40.510202 -98.133412
LeftForeArm 2.310119 -0.000000 11.506517
LeftHand 10.145316 -0.000000 -4.734992
LeftHandThumb1 -26.253704 0.000000 33.147579
RightShoulder -10.745364 -9.836832 -23.972315
RightArm 6.487386 20.763007 62.046056
RightForeArm -2.134943 -0.000000 122.130938
RightHand 28.590439 -0.000000 -22.739441
RightHandThumb1 -24.326973 -0.000000 -32.862282
LeftUpLeg 12.034069 3.007213 -0.733743
LeftLeg 2.787084 -0.000000 -0.000000
LeftFoot -21.850898 18.105533 -23.577631
LeftToeBase 16.078055 -0.000000 -0.000000
RightUpLeg 10.230626 -7.812150 1.648325
RightLeg 1.384878 -0.000000 -0.000000
RightFoot -13.125471 -12.540104 13.926642
RightToeBase 11.934191 -0.000000 -0.000000
2479
root 3.544446 32.201818 -0.545953 -6.037365 -1.633670 -0.241835
Spine 3.306878 3.834615 -1.206236
Head 29.870191 -52.605148 -8.725199
LeftShoulder -3.712724 -6.779639 27.033322
LeftArm 0.610111 40.484353 -98.227990
LeftForeArm 2.409483 -0.000000 11.538497
LeftHand 10.149343 -0.000000 -4.779611
LeftHandThumb1 -26.253704 0.000000 33.147579
RightShoulder -10.776414 -9.963952 -23.912027
RightArm 6.945499 18.917279 61.766938
RightForeArm -2.722323 -0.000000 121.333773
RightHand 28.462920 -0.000000 -22.194643
RightHandThumb1 -24.326973 -0.000000 -32.862282
LeftUpLeg 12.034943 3.039518 -0.729481
LeftLeg 2.795281 -0.000000 -0.000000
LeftFoot -21.875250 18.144517 -23.581266
LeftToeBase 16.110034 -0.000000 -0.000000
RightUpLeg 10.221538 -7.780581 1.658427
RightLeg 1.370644 -0.000000 -0.000000
RightFoot -13.089561 -12.509277 13.913544
RightToeBase 11.884040 -0.000000 -0.000000
2480
root 3.542881 32.201550 -0.550902 -6.034720 -1.707585 -0.250332
Spine 3.308957 3.849552 -1.217391
Head 29.764094 -52.612811 -8.557128
LeftShoulder -3.731032 -6.797970 27.081283
LeftArm 0.586784 40.517912 -98.268934
LeftForeArm 2.437113 -0.000000 11.596458
LeftHand 10.145650 0.000000 -4.857911
LeftHandThumb1 -26.253704 0.000000 33.147579
RightShoulder -10.802093 -10.088719 -23.861890
RightArm 7.472140 16.974255 61.441561
RightForeArm -3.434765 -0.000000 120.454325
RightHand 28.515862 -0.000000 -22.440822
RightHandThumb1 -24.326973 -0.000000 -32.862282
LeftUpLeg 12.034055 3.083137 -0.718142
LeftLeg 2.794511 -0.000000 -0.000000
LeftFoot -21.890627 18.167496 -23.594628
LeftToeBase 16.035749 -0.000000 -0.000000
RightUpLeg 10.204533 -7.744081 1.672759
RightLeg 1.366060 -0.000000 -0.000000
RightFoot -13.063140 -12.485046 13.878572
RightToeBase 11.878752 -0.000000 -0.000000
2481
root 3.541533 32.201140 -0.555651 -6.037220 -1.775931 -0.262981
Spine 3.316017 3.861186 -1.227869
Head 29.658710 -52.622436 -8.367586
LeftShoulder -3.750300 -6.821098 27.130724
LeftArm 0.569532 40.567071 -98.309835
LeftForeArm 2.419072 0.000000 11.645699
LeftHand 10.084874 -0.000000 -4.862399
LeftHandThumb1 -26.253704 0.000000 33.147579
RightShoulder -10.814628 -10.210424 -23.814136
RightArm 7.985441 15.010063 61.038677
RightForeArm -4.032487 0.000000 119.558601
RightHand 28.430125 -0.000000 -22.169645
RightHandThumb1 -24.326973 -0.000000 -32.862282
LeftUpLeg 12.035342 3.115741 -0.704658
LeftLeg 2.800396 -0.000000 -0.000000
LeftFoot -21.926221 18.202280 -23.604382
LeftToeBase 16.062429 -0.000000 -0.000000
RightUpLeg 10.189955 -7.712261 1.687283
RightLeg 1.367873 -0.000000 -0.000000
RightFoot -13.047873 -12.432281 13.896943
RightToeBase 11.964133 -0.000000 -0.000000
2482
root 3.541004 32.202009 -0.561000 -6.039725 -1.854087 -0.279212
Spine 3.298329 3.925564 -1.218323
Head 29.685385 -52.664426 -8.313446
LeftShoulder -3.693640 -6.821602 27.148518
LeftArm 0.600881 40.599508 -98.311218
LeftForeArm 2.416855 -0.000000 11.668744
LeftHand 10.066150 0.000000 -4.892306
LeftHandThumb1 -26.253704 0.000000 33.147579
RightShoulder -10.808035 -10.381753 -23.788028
RightArm 8.494343 13.020794 60.583630
RightForeArm -4.440557 0.000000 118.599517
RightHand 28.452501 -0.000000 -22.214841
RightHandThumb1 -24.326973 -0.000000 -32.862282
LeftUpLeg 12.035109 3.112878 -0.698946
LeftLeg 2.810593 -0.000000 -0.000000
LeftFoot -21.965896 18.274332 -23.630741
LeftToeBase 16.057765 -0.000000 -0.000000
RightUpLeg 10.180393 -7.673804 1.706330
RightLeg 1.353129 -0.000000 -0.000000
RightFoot -12.988706 -12.405530 13.860881
RightToeBase 11.934675 -0.000000 -0.000000
2483
root 3.541461 32.201254 -0.564590 -6.059331 -1.934870 -0.291059
Spine 3.308344 3.980278 -1.241349
Head 29.643662 -52.730690 -8.122916
LeftShoulder -3.668373 -6.847841 27.218715
LeftArm 0.599765 40.613667 -98.370441
LeftForeArm 2.430212 0.000000 11.682131
LeftHand 10.082490 -0.000000 -4.873714
LeftHandThumb1 -26.253704 0.000000 33.147579
RightShoulder -10.773043 -10.512624 -23.695631
RightArm 8.996869 11.055285 59.970410
RightForeArm -4.537636 -0.000000 117.619085
RightHand 28.680948 -0.000000 -22.210529
RightHandThumb1 -24.326973 -0.000000 -32.862282
LeftUpLeg 12.060990 3.174205 -0.685205
LeftLeg 2.808601 -0.000000 -0.000000
LeftFoot -21.996466 18.296840 -23.640671
LeftToeBase 16.055529 -0.000000 -0.000000
RightUpLeg 10.187073 -7.633109 1.716938
RightLeg 1.347668 -0.000000 -0.000000
RightFoot -12.977978 -12.362146 13.868649
RightToeBase 11.992049 -0.000000 -0.000000
2484
root 3.541245 32.200827 -0.568846 -6.079048 -2.004438 -0.298223
Spine 3.334752 4.043877 -1.242851
Head 29.533724 -52.795117 -7.953146
LeftShoulder -3.647938 -6.905612 27.236698
LeftArm 0.582974 40.676662 -98.385939
LeftForeArm 2.345073 0.000000 11.718835
LeftHand 10.154355 -0.000000 -4.899086
LeftHandThumb1 -26.253704 0.000000 33.147579
RightShoulder -10.787139 -10.613357 -23.666481
RightArm 9.521042 9.001154 59.369272
RightForeArm -4.380606 0.000000 116.631916
RightHand 28.747284 0.000000 -22.383817
RightHandThumb1 -24.326973 -0.000000 -32.862282
LeftUpLeg 12.078829 3.191647 -0.682552
LeftLeg 2.818842 -0.000000 -0.000000
LeftFoot -22.031425 18.341140 -23.659191
LeftToeBase 16.060342 -0.000000 -0.000000
RightUpLeg 10.194414 -7.599835 1.724116
RightLeg 1.340603 -0.000000 -0.000000
RightFoot -12.952358 -12.330858 13.863374
RightToeBase 11.984691 -0.000000 -0.000000
2485
root 3.540055 32.200931 -0.573274 -6.099366 -2.082798 -0.306314
Spine 3.353448 4.111674 -1.235357
Head 29.472810 -52.839253 -7.847325
LeftShoulder -3.627197 -6.913799 27.250797
LeftArm 0.620913 40.718951 -98.368867
LeftForeArm 2.257415 -0.000000 11.765546
LeftHand 10.128917 -0.000000 -5.210647
LeftHandThumb1 -26.253704 0.000000 33.147579
RightShoulder -10.755022 -10.715414 -23.672673
RightArm 10.024633 6.980702 58.765342
RightForeArm -4.066747 0.000000 115.645045
RightHand 28.927716 -0.000000 -22.595226
RightHandThumb1 -24.326973 -0.000000 -32.862282
LeftUpLeg 12.096094 3.230247 -0.671353
LeftLeg 2.833689 -0.000000 -0.000000
LeftFoot -22.035210 18.340803 -23.700028
LeftToeBase 15.891934 -0.000000 -0.000000
RightUpLeg 10.198919 -7.546770 1.738023
RightLeg 1.335572 -0.000000 -0.000000
RightFoot -12.924651 -12.316972 13.850025
RightToeBase 11.987495 -0.000000 -0.000000
2486
root 3.539911 32.200942 -0.576943 -6.124793 -2.168248 -0.313079
Spine 3.378045 4.179129 -1.220221
Head 29.433954 -52.885980 -7.781267
LeftShoulder -3.609529 -6.955484 27.231651
LeftArm 0.622202 40.769925 -98.348491
LeftForeArm 2.289518 0.000000 11.798103
LeftHand 10.221258 -0.000000 -4.911392
LeftHandThumb1 -26.253704 0.000000 33.147579
RightShoulder -10.699387 -10.810381 -23.687904
RightArm 10.497806 5.041080 58.129853
RightForeArm -3.422662 -0.000000 114.696745
RightHand 29.077134 -0.000000 -22.284587
RightHandThumb1 -24.326973 -0.000000 -32.862282
LeftUpLeg 12.128440 3.298358 -0.658145
LeftLeg 2.828300 -0.000000 -0.000000
LeftFoot -22.051017 18.402704 -23.655411
LeftToeBase 15.963827 -0.000000 -0.000000
RightUpLeg 10.206994 -7.507271 1.744984
RightLeg 1.336165 -0.000000 -0.000000
RightFoot -12.882621 -12.292090 13.802467
RightToeBase 11.927806 -0.000000 -0.000000
